<mxfile host="app.diagrams.net" agent="Mozilla/5.0 (Windows NT 10.0; Win64; x64) AppleWebKit/537.36 (KHTML, like Gecko) Chrome/131.0.0.0 Safari/537.36" version="26.2.13">
  <diagram name="第 1 页" id="8nPp42vIfeSO5kFA-lU3">
    <mxGraphModel dx="1556" dy="858" grid="1" gridSize="10" guides="1" tooltips="1" connect="1" arrows="1" fold="1" page="1" pageScale="1" pageWidth="1600" pageHeight="900" math="0" shadow="0">
      <root>
        <mxCell id="0" />
        <mxCell id="1" parent="0" />
        <mxCell id="BS9RdD2L82Xt9nRUD7uX-1" value="" style="pointerEvents=1;verticalLabelPosition=bottom;shadow=0;dashed=0;align=center;html=1;verticalAlign=top;shape=mxgraph.electrical.resistors.resistor_1;rotation=90;" parent="1" vertex="1">
          <mxGeometry x="250" y="410" width="100" height="20" as="geometry" />
        </mxCell>
        <mxCell id="BS9RdD2L82Xt9nRUD7uX-2" value="&lt;font face=&quot;Times New Roman&quot; style=&quot;font-size: 16px;&quot;&gt;2R&lt;/font&gt;" style="text;html=1;align=center;verticalAlign=middle;whiteSpace=wrap;rounded=0;" parent="1" vertex="1">
          <mxGeometry x="300" y="405" width="60" height="30" as="geometry" />
        </mxCell>
        <mxCell id="BS9RdD2L82Xt9nRUD7uX-30" style="edgeStyle=orthogonalEdgeStyle;shape=connector;rounded=0;orthogonalLoop=1;jettySize=auto;html=1;exitX=1;exitY=0.5;exitDx=0;exitDy=0;exitPerimeter=0;entryX=0;entryY=0.5;entryDx=0;entryDy=0;strokeColor=default;align=center;verticalAlign=middle;fontFamily=Helvetica;fontSize=11;fontColor=default;labelBackgroundColor=default;startFill=0;endArrow=none;" parent="1" source="BS9RdD2L82Xt9nRUD7uX-3" target="BS9RdD2L82Xt9nRUD7uX-11" edge="1">
          <mxGeometry relative="1" as="geometry" />
        </mxCell>
        <mxCell id="BS9RdD2L82Xt9nRUD7uX-3" value="" style="pointerEvents=1;verticalLabelPosition=bottom;shadow=0;dashed=0;align=center;html=1;verticalAlign=top;shape=mxgraph.electrical.resistors.resistor_1;rotation=90;" parent="1" vertex="1">
          <mxGeometry x="350" y="410" width="100" height="20" as="geometry" />
        </mxCell>
        <mxCell id="BS9RdD2L82Xt9nRUD7uX-4" value="&lt;font face=&quot;Times New Roman&quot; style=&quot;font-size: 16px;&quot;&gt;2R&lt;/font&gt;" style="text;html=1;align=center;verticalAlign=middle;whiteSpace=wrap;rounded=0;" parent="1" vertex="1">
          <mxGeometry x="400" y="405" width="60" height="30" as="geometry" />
        </mxCell>
        <mxCell id="BS9RdD2L82Xt9nRUD7uX-29" style="edgeStyle=orthogonalEdgeStyle;shape=connector;rounded=0;orthogonalLoop=1;jettySize=auto;html=1;exitX=1;exitY=0.5;exitDx=0;exitDy=0;exitPerimeter=0;entryX=0;entryY=0.5;entryDx=0;entryDy=0;strokeColor=default;align=center;verticalAlign=middle;fontFamily=Helvetica;fontSize=11;fontColor=default;labelBackgroundColor=default;startFill=0;endArrow=none;" parent="1" source="BS9RdD2L82Xt9nRUD7uX-5" target="BS9RdD2L82Xt9nRUD7uX-12" edge="1">
          <mxGeometry relative="1" as="geometry" />
        </mxCell>
        <mxCell id="BS9RdD2L82Xt9nRUD7uX-5" value="" style="pointerEvents=1;verticalLabelPosition=bottom;shadow=0;dashed=0;align=center;html=1;verticalAlign=top;shape=mxgraph.electrical.resistors.resistor_1;rotation=90;" parent="1" vertex="1">
          <mxGeometry x="450" y="410" width="100" height="20" as="geometry" />
        </mxCell>
        <mxCell id="BS9RdD2L82Xt9nRUD7uX-6" value="&lt;font face=&quot;Times New Roman&quot; style=&quot;font-size: 16px;&quot;&gt;2R&lt;/font&gt;" style="text;html=1;align=center;verticalAlign=middle;whiteSpace=wrap;rounded=0;" parent="1" vertex="1">
          <mxGeometry x="500" y="405" width="60" height="30" as="geometry" />
        </mxCell>
        <mxCell id="BS9RdD2L82Xt9nRUD7uX-28" style="edgeStyle=orthogonalEdgeStyle;shape=connector;rounded=0;orthogonalLoop=1;jettySize=auto;html=1;exitX=1;exitY=0.5;exitDx=0;exitDy=0;exitPerimeter=0;entryX=0;entryY=0.5;entryDx=0;entryDy=0;strokeColor=default;align=center;verticalAlign=middle;fontFamily=Helvetica;fontSize=11;fontColor=default;labelBackgroundColor=default;startFill=0;endArrow=none;" parent="1" source="BS9RdD2L82Xt9nRUD7uX-7" target="BS9RdD2L82Xt9nRUD7uX-13" edge="1">
          <mxGeometry relative="1" as="geometry" />
        </mxCell>
        <mxCell id="BS9RdD2L82Xt9nRUD7uX-7" value="" style="pointerEvents=1;verticalLabelPosition=bottom;shadow=0;dashed=0;align=center;html=1;verticalAlign=top;shape=mxgraph.electrical.resistors.resistor_1;rotation=90;" parent="1" vertex="1">
          <mxGeometry x="550" y="410" width="100" height="20" as="geometry" />
        </mxCell>
        <mxCell id="BS9RdD2L82Xt9nRUD7uX-8" value="&lt;font face=&quot;Times New Roman&quot; style=&quot;font-size: 16px;&quot;&gt;2R&lt;/font&gt;" style="text;html=1;align=center;verticalAlign=middle;whiteSpace=wrap;rounded=0;" parent="1" vertex="1">
          <mxGeometry x="600" y="405" width="60" height="30" as="geometry" />
        </mxCell>
        <mxCell id="BS9RdD2L82Xt9nRUD7uX-27" style="edgeStyle=orthogonalEdgeStyle;shape=connector;rounded=0;orthogonalLoop=1;jettySize=auto;html=1;exitX=1;exitY=0.5;exitDx=0;exitDy=0;exitPerimeter=0;entryX=0;entryY=0.5;entryDx=0;entryDy=0;strokeColor=default;align=center;verticalAlign=middle;fontFamily=Helvetica;fontSize=11;fontColor=default;labelBackgroundColor=default;startFill=0;endArrow=none;" parent="1" source="BS9RdD2L82Xt9nRUD7uX-9" target="BS9RdD2L82Xt9nRUD7uX-14" edge="1">
          <mxGeometry relative="1" as="geometry" />
        </mxCell>
        <mxCell id="BS9RdD2L82Xt9nRUD7uX-9" value="" style="pointerEvents=1;verticalLabelPosition=bottom;shadow=0;dashed=0;align=center;html=1;verticalAlign=top;shape=mxgraph.electrical.resistors.resistor_1;rotation=90;" parent="1" vertex="1">
          <mxGeometry x="650" y="410" width="100" height="20" as="geometry" />
        </mxCell>
        <mxCell id="BS9RdD2L82Xt9nRUD7uX-10" value="&lt;font face=&quot;Times New Roman&quot; style=&quot;font-size: 16px;&quot;&gt;2R&lt;/font&gt;" style="text;html=1;align=center;verticalAlign=middle;whiteSpace=wrap;rounded=0;" parent="1" vertex="1">
          <mxGeometry x="700" y="405" width="60" height="30" as="geometry" />
        </mxCell>
        <mxCell id="BS9RdD2L82Xt9nRUD7uX-33" style="edgeStyle=orthogonalEdgeStyle;shape=connector;rounded=0;orthogonalLoop=1;jettySize=auto;html=1;exitDx=0;exitDy=0;strokeColor=default;align=center;verticalAlign=middle;fontFamily=Helvetica;fontSize=11;fontColor=default;labelBackgroundColor=default;startFill=0;endArrow=none;" parent="1" source="3h_uh-FgA8ez3YBPBazs-1" edge="1">
          <mxGeometry relative="1" as="geometry">
            <mxPoint x="300" y="560" as="targetPoint" />
            <Array as="points">
              <mxPoint x="300" y="560" />
            </Array>
          </mxGeometry>
        </mxCell>
        <mxCell id="BS9RdD2L82Xt9nRUD7uX-40" style="edgeStyle=orthogonalEdgeStyle;shape=connector;rounded=0;orthogonalLoop=1;jettySize=auto;html=1;exitX=1;exitY=0.12;exitDx=0;exitDy=0;strokeColor=default;align=center;verticalAlign=middle;fontFamily=Helvetica;fontSize=11;fontColor=default;labelBackgroundColor=default;startFill=0;endArrow=none;" parent="1" source="BS9RdD2L82Xt9nRUD7uX-11" edge="1">
          <mxGeometry relative="1" as="geometry">
            <mxPoint x="410" y="570" as="targetPoint" />
          </mxGeometry>
        </mxCell>
        <mxCell id="BS9RdD2L82Xt9nRUD7uX-11" value="" style="html=1;shape=mxgraph.electrical.electro-mechanical.twoWaySwitch;aspect=fixed;elSwitchState=2;direction=south;" parent="1" vertex="1">
          <mxGeometry x="387" y="480" width="26" height="75" as="geometry" />
        </mxCell>
        <mxCell id="BS9RdD2L82Xt9nRUD7uX-35" style="edgeStyle=orthogonalEdgeStyle;shape=connector;rounded=0;orthogonalLoop=1;jettySize=auto;html=1;exitDx=0;exitDy=0;strokeColor=default;align=center;verticalAlign=middle;fontFamily=Helvetica;fontSize=11;fontColor=default;labelBackgroundColor=default;startFill=0;endArrow=none;" parent="1" source="BS9RdD2L82Xt9nRUD7uX-59" edge="1">
          <mxGeometry relative="1" as="geometry">
            <mxPoint x="489.95238095238096" y="560" as="targetPoint" />
          </mxGeometry>
        </mxCell>
        <mxCell id="BS9RdD2L82Xt9nRUD7uX-41" style="edgeStyle=orthogonalEdgeStyle;shape=connector;rounded=0;orthogonalLoop=1;jettySize=auto;html=1;exitDx=0;exitDy=0;strokeColor=default;align=center;verticalAlign=middle;fontFamily=Helvetica;fontSize=11;fontColor=default;labelBackgroundColor=default;startFill=0;endArrow=none;" parent="1" source="BS9RdD2L82Xt9nRUD7uX-63" edge="1">
          <mxGeometry relative="1" as="geometry">
            <mxPoint x="510" y="570" as="targetPoint" />
          </mxGeometry>
        </mxCell>
        <mxCell id="BS9RdD2L82Xt9nRUD7uX-12" value="" style="html=1;shape=mxgraph.electrical.electro-mechanical.twoWaySwitch;aspect=fixed;elSwitchState=2;direction=south;" parent="1" vertex="1">
          <mxGeometry x="487" y="480" width="26" height="75" as="geometry" />
        </mxCell>
        <mxCell id="BS9RdD2L82Xt9nRUD7uX-36" style="edgeStyle=orthogonalEdgeStyle;shape=connector;rounded=0;orthogonalLoop=1;jettySize=auto;html=1;exitX=1;exitY=0.88;exitDx=0;exitDy=0;strokeColor=default;align=center;verticalAlign=middle;fontFamily=Helvetica;fontSize=11;fontColor=default;labelBackgroundColor=default;startFill=0;endArrow=none;" parent="1" source="BS9RdD2L82Xt9nRUD7uX-13" edge="1">
          <mxGeometry relative="1" as="geometry">
            <mxPoint x="590" y="555" as="targetPoint" />
          </mxGeometry>
        </mxCell>
        <mxCell id="BS9RdD2L82Xt9nRUD7uX-37" style="edgeStyle=orthogonalEdgeStyle;shape=connector;rounded=0;orthogonalLoop=1;jettySize=auto;html=1;exitX=1;exitY=0.88;exitDx=0;exitDy=0;strokeColor=default;align=center;verticalAlign=middle;fontFamily=Helvetica;fontSize=11;fontColor=default;labelBackgroundColor=default;startFill=0;endArrow=none;" parent="1" source="BS9RdD2L82Xt9nRUD7uX-13" edge="1">
          <mxGeometry relative="1" as="geometry">
            <mxPoint x="590" y="560" as="targetPoint" />
          </mxGeometry>
        </mxCell>
        <mxCell id="BS9RdD2L82Xt9nRUD7uX-42" style="edgeStyle=orthogonalEdgeStyle;shape=connector;rounded=0;orthogonalLoop=1;jettySize=auto;html=1;exitDx=0;exitDy=0;strokeColor=default;align=center;verticalAlign=middle;fontFamily=Helvetica;fontSize=11;fontColor=default;labelBackgroundColor=default;startFill=0;endArrow=none;" parent="1" source="BS9RdD2L82Xt9nRUD7uX-65" edge="1">
          <mxGeometry relative="1" as="geometry">
            <mxPoint x="610" y="570" as="targetPoint" />
          </mxGeometry>
        </mxCell>
        <mxCell id="BS9RdD2L82Xt9nRUD7uX-13" value="" style="html=1;shape=mxgraph.electrical.electro-mechanical.twoWaySwitch;aspect=fixed;elSwitchState=2;direction=south;" parent="1" vertex="1">
          <mxGeometry x="587" y="480" width="26" height="75" as="geometry" />
        </mxCell>
        <mxCell id="BS9RdD2L82Xt9nRUD7uX-38" style="edgeStyle=orthogonalEdgeStyle;shape=connector;rounded=0;orthogonalLoop=1;jettySize=auto;html=1;exitX=1;exitY=0.88;exitDx=0;exitDy=0;strokeColor=default;align=center;verticalAlign=middle;fontFamily=Helvetica;fontSize=11;fontColor=default;labelBackgroundColor=default;startFill=0;endArrow=none;" parent="1" source="BS9RdD2L82Xt9nRUD7uX-14" edge="1">
          <mxGeometry relative="1" as="geometry">
            <mxPoint x="690" y="560" as="targetPoint" />
          </mxGeometry>
        </mxCell>
        <mxCell id="BS9RdD2L82Xt9nRUD7uX-43" style="edgeStyle=orthogonalEdgeStyle;shape=connector;rounded=0;orthogonalLoop=1;jettySize=auto;html=1;exitX=1;exitY=0.12;exitDx=0;exitDy=0;strokeColor=default;align=center;verticalAlign=middle;fontFamily=Helvetica;fontSize=11;fontColor=default;labelBackgroundColor=default;startFill=0;endArrow=none;" parent="1" source="BS9RdD2L82Xt9nRUD7uX-14" edge="1">
          <mxGeometry relative="1" as="geometry">
            <mxPoint x="710" y="570" as="targetPoint" />
          </mxGeometry>
        </mxCell>
        <mxCell id="BS9RdD2L82Xt9nRUD7uX-14" value="" style="html=1;shape=mxgraph.electrical.electro-mechanical.twoWaySwitch;aspect=fixed;elSwitchState=2;direction=south;" parent="1" vertex="1">
          <mxGeometry x="687" y="480" width="26" height="75" as="geometry" />
        </mxCell>
        <mxCell id="BS9RdD2L82Xt9nRUD7uX-15" value="" style="pointerEvents=1;verticalLabelPosition=bottom;shadow=0;dashed=0;align=center;html=1;verticalAlign=top;shape=mxgraph.electrical.resistors.resistor_1;" parent="1" vertex="1">
          <mxGeometry x="400" y="350" width="100" height="20" as="geometry" />
        </mxCell>
        <mxCell id="BS9RdD2L82Xt9nRUD7uX-17" value="&lt;font face=&quot;Times New Roman&quot; style=&quot;font-size: 16px;&quot;&gt;R&lt;/font&gt;" style="text;html=1;align=center;verticalAlign=middle;whiteSpace=wrap;rounded=0;" parent="1" vertex="1">
          <mxGeometry x="420" y="320" width="60" height="30" as="geometry" />
        </mxCell>
        <mxCell id="BS9RdD2L82Xt9nRUD7uX-18" value="" style="pointerEvents=1;verticalLabelPosition=bottom;shadow=0;dashed=0;align=center;html=1;verticalAlign=top;shape=mxgraph.electrical.resistors.resistor_1;" parent="1" vertex="1">
          <mxGeometry x="500" y="350" width="100" height="20" as="geometry" />
        </mxCell>
        <mxCell id="BS9RdD2L82Xt9nRUD7uX-19" value="&lt;font face=&quot;Times New Roman&quot; style=&quot;font-size: 16px;&quot;&gt;R&lt;/font&gt;" style="text;html=1;align=center;verticalAlign=middle;whiteSpace=wrap;rounded=0;" parent="1" vertex="1">
          <mxGeometry x="520" y="320" width="60" height="30" as="geometry" />
        </mxCell>
        <mxCell id="BS9RdD2L82Xt9nRUD7uX-20" value="" style="pointerEvents=1;verticalLabelPosition=bottom;shadow=0;dashed=0;align=center;html=1;verticalAlign=top;shape=mxgraph.electrical.resistors.resistor_1;" parent="1" vertex="1">
          <mxGeometry x="600" y="350" width="100" height="20" as="geometry" />
        </mxCell>
        <mxCell id="BS9RdD2L82Xt9nRUD7uX-21" value="&lt;font face=&quot;Times New Roman&quot; style=&quot;font-size: 16px;&quot;&gt;R&lt;/font&gt;" style="text;html=1;align=center;verticalAlign=middle;whiteSpace=wrap;rounded=0;" parent="1" vertex="1">
          <mxGeometry x="620" y="320" width="60" height="30" as="geometry" />
        </mxCell>
        <mxCell id="BS9RdD2L82Xt9nRUD7uX-22" style="edgeStyle=orthogonalEdgeStyle;rounded=0;orthogonalLoop=1;jettySize=auto;html=1;exitX=0;exitY=0.5;exitDx=0;exitDy=0;exitPerimeter=0;entryX=0;entryY=0.5;entryDx=0;entryDy=0;entryPerimeter=0;endArrow=none;startFill=0;" parent="1" source="BS9RdD2L82Xt9nRUD7uX-1" target="BS9RdD2L82Xt9nRUD7uX-15" edge="1">
          <mxGeometry relative="1" as="geometry">
            <Array as="points">
              <mxPoint x="300" y="360" />
            </Array>
          </mxGeometry>
        </mxCell>
        <mxCell id="BS9RdD2L82Xt9nRUD7uX-23" style="edgeStyle=orthogonalEdgeStyle;rounded=0;orthogonalLoop=1;jettySize=auto;html=1;exitDx=0;exitDy=0;exitPerimeter=0;entryX=0;entryY=0.5;entryDx=0;entryDy=0;entryPerimeter=0;endArrow=none;startFill=0;" parent="1" source="BS9RdD2L82Xt9nRUD7uX-51" target="BS9RdD2L82Xt9nRUD7uX-15" edge="1">
          <mxGeometry relative="1" as="geometry" />
        </mxCell>
        <mxCell id="BS9RdD2L82Xt9nRUD7uX-24" style="edgeStyle=orthogonalEdgeStyle;shape=connector;rounded=0;orthogonalLoop=1;jettySize=auto;html=1;exitX=0;exitY=0.5;exitDx=0;exitDy=0;exitPerimeter=0;entryX=0;entryY=0.5;entryDx=0;entryDy=0;entryPerimeter=0;strokeColor=default;align=center;verticalAlign=middle;fontFamily=Helvetica;fontSize=11;fontColor=default;labelBackgroundColor=default;startFill=0;endArrow=none;" parent="1" source="BS9RdD2L82Xt9nRUD7uX-5" target="BS9RdD2L82Xt9nRUD7uX-18" edge="1">
          <mxGeometry relative="1" as="geometry" />
        </mxCell>
        <mxCell id="BS9RdD2L82Xt9nRUD7uX-25" style="edgeStyle=orthogonalEdgeStyle;shape=connector;rounded=0;orthogonalLoop=1;jettySize=auto;html=1;exitX=0;exitY=0.5;exitDx=0;exitDy=0;exitPerimeter=0;entryX=0;entryY=0.5;entryDx=0;entryDy=0;entryPerimeter=0;strokeColor=default;align=center;verticalAlign=middle;fontFamily=Helvetica;fontSize=11;fontColor=default;labelBackgroundColor=default;startFill=0;endArrow=none;" parent="1" source="BS9RdD2L82Xt9nRUD7uX-7" target="BS9RdD2L82Xt9nRUD7uX-20" edge="1">
          <mxGeometry relative="1" as="geometry" />
        </mxCell>
        <mxCell id="BS9RdD2L82Xt9nRUD7uX-26" style="edgeStyle=orthogonalEdgeStyle;shape=connector;rounded=0;orthogonalLoop=1;jettySize=auto;html=1;exitDx=0;exitDy=0;exitPerimeter=0;entryX=1;entryY=0.5;entryDx=0;entryDy=0;entryPerimeter=0;strokeColor=default;align=center;verticalAlign=middle;fontFamily=Helvetica;fontSize=11;fontColor=default;labelBackgroundColor=default;startFill=0;endArrow=none;" parent="1" source="BS9RdD2L82Xt9nRUD7uX-55" target="BS9RdD2L82Xt9nRUD7uX-20" edge="1">
          <mxGeometry relative="1" as="geometry" />
        </mxCell>
        <mxCell id="BS9RdD2L82Xt9nRUD7uX-31" value="" style="pointerEvents=1;verticalLabelPosition=bottom;shadow=0;dashed=0;align=center;html=1;verticalAlign=top;shape=mxgraph.electrical.signal_sources.signal_ground;fontFamily=Helvetica;fontSize=11;fontColor=default;labelBackgroundColor=default;" parent="1" vertex="1">
          <mxGeometry x="278" y="570" width="45" height="30" as="geometry" />
        </mxCell>
        <mxCell id="BS9RdD2L82Xt9nRUD7uX-32" style="edgeStyle=orthogonalEdgeStyle;shape=connector;rounded=0;orthogonalLoop=1;jettySize=auto;html=1;exitX=1;exitY=0.5;exitDx=0;exitDy=0;exitPerimeter=0;entryX=0.5;entryY=0;entryDx=0;entryDy=0;entryPerimeter=0;strokeColor=default;align=center;verticalAlign=middle;fontFamily=Helvetica;fontSize=11;fontColor=default;labelBackgroundColor=default;startFill=0;endArrow=none;" parent="1" source="BS9RdD2L82Xt9nRUD7uX-1" target="BS9RdD2L82Xt9nRUD7uX-31" edge="1">
          <mxGeometry relative="1" as="geometry" />
        </mxCell>
        <mxCell id="BS9RdD2L82Xt9nRUD7uX-34" value="" style="endArrow=none;html=1;rounded=0;strokeColor=default;align=center;verticalAlign=middle;fontFamily=Helvetica;fontSize=11;fontColor=default;labelBackgroundColor=default;edgeStyle=orthogonalEdgeStyle;" parent="1" source="BS9RdD2L82Xt9nRUD7uX-61" edge="1">
          <mxGeometry width="50" height="50" relative="1" as="geometry">
            <mxPoint x="387" y="560" as="sourcePoint" />
            <mxPoint x="690" y="560" as="targetPoint" />
          </mxGeometry>
        </mxCell>
        <mxCell id="BS9RdD2L82Xt9nRUD7uX-39" value="" style="endArrow=none;html=1;rounded=0;strokeColor=default;align=center;verticalAlign=middle;fontFamily=Helvetica;fontSize=11;fontColor=default;labelBackgroundColor=default;edgeStyle=orthogonalEdgeStyle;" parent="1" edge="1">
          <mxGeometry width="50" height="50" relative="1" as="geometry">
            <mxPoint x="410" y="570" as="sourcePoint" />
            <mxPoint x="733" y="570" as="targetPoint" />
          </mxGeometry>
        </mxCell>
        <mxCell id="BS9RdD2L82Xt9nRUD7uX-45" value="" style="ellipse;whiteSpace=wrap;html=1;aspect=fixed;fontFamily=Helvetica;fontSize=11;fontColor=default;labelBackgroundColor=default;" parent="1" vertex="1">
          <mxGeometry x="733" y="565" width="10" height="10" as="geometry" />
        </mxCell>
        <mxCell id="BS9RdD2L82Xt9nRUD7uX-46" value="&lt;font face=&quot;Times New Roman&quot; style=&quot;font-size: 16px;&quot;&gt;Vref&lt;/font&gt;" style="text;html=1;align=center;verticalAlign=middle;whiteSpace=wrap;rounded=0;" parent="1" vertex="1">
          <mxGeometry x="700" y="570" width="60" height="30" as="geometry" />
        </mxCell>
        <mxCell id="BS9RdD2L82Xt9nRUD7uX-50" value="&lt;font face=&quot;Times New Roman&quot; style=&quot;font-size: 16px;&quot;&gt;Vout&lt;/font&gt;" style="text;html=1;align=center;verticalAlign=middle;whiteSpace=wrap;rounded=0;" parent="1" vertex="1">
          <mxGeometry x="700" y="325" width="60" height="30" as="geometry" />
        </mxCell>
        <mxCell id="BS9RdD2L82Xt9nRUD7uX-52" value="" style="edgeStyle=orthogonalEdgeStyle;rounded=0;orthogonalLoop=1;jettySize=auto;html=1;exitX=0;exitY=0.5;exitDx=0;exitDy=0;exitPerimeter=0;entryDx=0;entryDy=0;entryPerimeter=0;endArrow=none;startFill=0;" parent="1" source="BS9RdD2L82Xt9nRUD7uX-3" target="BS9RdD2L82Xt9nRUD7uX-51" edge="1">
          <mxGeometry relative="1" as="geometry">
            <mxPoint x="400" y="370" as="sourcePoint" />
            <mxPoint x="400" y="360" as="targetPoint" />
          </mxGeometry>
        </mxCell>
        <mxCell id="BS9RdD2L82Xt9nRUD7uX-51" value="" style="shape=waypoint;sketch=0;fillStyle=solid;size=6;pointerEvents=1;points=[];fillColor=none;resizable=0;rotatable=0;perimeter=centerPerimeter;snapToPoint=1;fontFamily=Helvetica;fontSize=11;fontColor=default;labelBackgroundColor=default;" parent="1" vertex="1">
          <mxGeometry x="390" y="350" width="20" height="20" as="geometry" />
        </mxCell>
        <mxCell id="BS9RdD2L82Xt9nRUD7uX-53" value="" style="shape=waypoint;sketch=0;fillStyle=solid;size=6;pointerEvents=1;points=[];fillColor=none;resizable=0;rotatable=0;perimeter=centerPerimeter;snapToPoint=1;fontFamily=Helvetica;fontSize=11;fontColor=default;labelBackgroundColor=default;" parent="1" vertex="1">
          <mxGeometry x="490" y="350" width="20" height="20" as="geometry" />
        </mxCell>
        <mxCell id="BS9RdD2L82Xt9nRUD7uX-54" value="" style="shape=waypoint;sketch=0;fillStyle=solid;size=6;pointerEvents=1;points=[];fillColor=none;resizable=0;rotatable=0;perimeter=centerPerimeter;snapToPoint=1;fontFamily=Helvetica;fontSize=11;fontColor=default;labelBackgroundColor=default;" parent="1" vertex="1">
          <mxGeometry x="590" y="350" width="20" height="20" as="geometry" />
        </mxCell>
        <mxCell id="BS9RdD2L82Xt9nRUD7uX-56" value="" style="edgeStyle=orthogonalEdgeStyle;shape=connector;rounded=0;orthogonalLoop=1;jettySize=auto;html=1;exitX=0;exitY=0.5;exitDx=0;exitDy=0;exitPerimeter=0;entryDx=0;entryDy=0;entryPerimeter=0;strokeColor=default;align=center;verticalAlign=middle;fontFamily=Helvetica;fontSize=11;fontColor=default;labelBackgroundColor=default;startFill=0;endArrow=none;" parent="1" source="BS9RdD2L82Xt9nRUD7uX-9" target="BS9RdD2L82Xt9nRUD7uX-55" edge="1">
          <mxGeometry relative="1" as="geometry">
            <mxPoint x="700" y="370" as="sourcePoint" />
            <mxPoint x="700" y="360" as="targetPoint" />
          </mxGeometry>
        </mxCell>
        <mxCell id="BS9RdD2L82Xt9nRUD7uX-55" value="" style="shape=waypoint;sketch=0;fillStyle=solid;size=6;pointerEvents=1;points=[];fillColor=none;resizable=0;rotatable=0;perimeter=centerPerimeter;snapToPoint=1;fontFamily=Helvetica;fontSize=11;fontColor=default;labelBackgroundColor=default;" parent="1" vertex="1">
          <mxGeometry x="690" y="350" width="20" height="20" as="geometry" />
        </mxCell>
        <mxCell id="BS9RdD2L82Xt9nRUD7uX-58" value="" style="edgeStyle=orthogonalEdgeStyle;shape=connector;rounded=0;orthogonalLoop=1;jettySize=auto;html=1;exitX=1;exitY=0.88;exitDx=0;exitDy=0;strokeColor=default;align=center;verticalAlign=middle;fontFamily=Helvetica;fontSize=11;fontColor=default;labelBackgroundColor=default;startFill=0;endArrow=none;" parent="1" source="BS9RdD2L82Xt9nRUD7uX-11" target="BS9RdD2L82Xt9nRUD7uX-57" edge="1">
          <mxGeometry relative="1" as="geometry">
            <mxPoint x="300" y="560" as="targetPoint" />
            <mxPoint x="390" y="555" as="sourcePoint" />
            <Array as="points">
              <mxPoint x="390" y="560" />
            </Array>
          </mxGeometry>
        </mxCell>
        <mxCell id="BS9RdD2L82Xt9nRUD7uX-57" value="" style="shape=waypoint;sketch=0;fillStyle=solid;size=6;pointerEvents=1;points=[];fillColor=none;resizable=0;rotatable=0;perimeter=centerPerimeter;snapToPoint=1;fontFamily=Helvetica;fontSize=11;fontColor=default;labelBackgroundColor=default;" parent="1" vertex="1">
          <mxGeometry x="380" y="550" width="20" height="20" as="geometry" />
        </mxCell>
        <mxCell id="BS9RdD2L82Xt9nRUD7uX-60" value="" style="edgeStyle=orthogonalEdgeStyle;shape=connector;rounded=0;orthogonalLoop=1;jettySize=auto;html=1;exitX=1;exitY=0.88;exitDx=0;exitDy=0;strokeColor=default;align=center;verticalAlign=middle;fontFamily=Helvetica;fontSize=11;fontColor=default;labelBackgroundColor=default;startFill=0;endArrow=none;" parent="1" source="BS9RdD2L82Xt9nRUD7uX-12" target="BS9RdD2L82Xt9nRUD7uX-59" edge="1">
          <mxGeometry relative="1" as="geometry">
            <mxPoint x="489.95238095238096" y="560" as="targetPoint" />
            <mxPoint x="490" y="555" as="sourcePoint" />
          </mxGeometry>
        </mxCell>
        <mxCell id="BS9RdD2L82Xt9nRUD7uX-59" value="" style="shape=waypoint;sketch=0;fillStyle=solid;size=6;pointerEvents=1;points=[];fillColor=none;resizable=0;rotatable=0;perimeter=centerPerimeter;snapToPoint=1;fontFamily=Helvetica;fontSize=11;fontColor=default;labelBackgroundColor=default;" parent="1" vertex="1">
          <mxGeometry x="480" y="550" width="20" height="20" as="geometry" />
        </mxCell>
        <mxCell id="BS9RdD2L82Xt9nRUD7uX-62" value="" style="endArrow=none;html=1;rounded=0;strokeColor=default;align=center;verticalAlign=middle;fontFamily=Helvetica;fontSize=11;fontColor=default;labelBackgroundColor=default;edgeStyle=orthogonalEdgeStyle;" parent="1" target="BS9RdD2L82Xt9nRUD7uX-61" edge="1">
          <mxGeometry width="50" height="50" relative="1" as="geometry">
            <mxPoint x="387" y="560" as="sourcePoint" />
            <mxPoint x="690" y="560" as="targetPoint" />
          </mxGeometry>
        </mxCell>
        <mxCell id="BS9RdD2L82Xt9nRUD7uX-61" value="" style="shape=waypoint;sketch=0;fillStyle=solid;size=6;pointerEvents=1;points=[];fillColor=none;resizable=0;rotatable=0;perimeter=centerPerimeter;snapToPoint=1;fontFamily=Helvetica;fontSize=11;fontColor=default;labelBackgroundColor=default;" parent="1" vertex="1">
          <mxGeometry x="580" y="550" width="20" height="20" as="geometry" />
        </mxCell>
        <mxCell id="BS9RdD2L82Xt9nRUD7uX-64" value="" style="edgeStyle=orthogonalEdgeStyle;shape=connector;rounded=0;orthogonalLoop=1;jettySize=auto;html=1;exitX=1;exitY=0.12;exitDx=0;exitDy=0;strokeColor=default;align=center;verticalAlign=middle;fontFamily=Helvetica;fontSize=11;fontColor=default;labelBackgroundColor=default;startFill=0;endArrow=none;" parent="1" source="BS9RdD2L82Xt9nRUD7uX-12" target="BS9RdD2L82Xt9nRUD7uX-63" edge="1">
          <mxGeometry relative="1" as="geometry">
            <mxPoint x="510" y="570" as="targetPoint" />
            <mxPoint x="510" y="555" as="sourcePoint" />
          </mxGeometry>
        </mxCell>
        <mxCell id="BS9RdD2L82Xt9nRUD7uX-63" value="" style="shape=waypoint;sketch=0;fillStyle=solid;size=6;pointerEvents=1;points=[];fillColor=none;resizable=0;rotatable=0;perimeter=centerPerimeter;snapToPoint=1;fontFamily=Helvetica;fontSize=11;fontColor=default;labelBackgroundColor=default;" parent="1" vertex="1">
          <mxGeometry x="500" y="560" width="20" height="20" as="geometry" />
        </mxCell>
        <mxCell id="BS9RdD2L82Xt9nRUD7uX-66" value="" style="edgeStyle=orthogonalEdgeStyle;shape=connector;rounded=0;orthogonalLoop=1;jettySize=auto;html=1;exitX=1;exitY=0.12;exitDx=0;exitDy=0;strokeColor=default;align=center;verticalAlign=middle;fontFamily=Helvetica;fontSize=11;fontColor=default;labelBackgroundColor=default;startFill=0;endArrow=none;" parent="1" source="BS9RdD2L82Xt9nRUD7uX-13" target="BS9RdD2L82Xt9nRUD7uX-65" edge="1">
          <mxGeometry relative="1" as="geometry">
            <mxPoint x="610" y="570" as="targetPoint" />
            <mxPoint x="610" y="555" as="sourcePoint" />
          </mxGeometry>
        </mxCell>
        <mxCell id="BS9RdD2L82Xt9nRUD7uX-65" value="" style="shape=waypoint;sketch=0;fillStyle=solid;size=6;pointerEvents=1;points=[];fillColor=none;resizable=0;rotatable=0;perimeter=centerPerimeter;snapToPoint=1;fontFamily=Helvetica;fontSize=11;fontColor=default;labelBackgroundColor=default;" parent="1" vertex="1">
          <mxGeometry x="600" y="560" width="20" height="20" as="geometry" />
        </mxCell>
        <mxCell id="BS9RdD2L82Xt9nRUD7uX-67" value="" style="shape=waypoint;sketch=0;fillStyle=solid;size=6;pointerEvents=1;points=[];fillColor=none;resizable=0;rotatable=0;perimeter=centerPerimeter;snapToPoint=1;fontFamily=Helvetica;fontSize=11;fontColor=default;labelBackgroundColor=default;" parent="1" vertex="1">
          <mxGeometry x="700" y="560" width="20" height="20" as="geometry" />
        </mxCell>
        <mxCell id="BS9RdD2L82Xt9nRUD7uX-68" value="&lt;font face=&quot;Times New Roman&quot; style=&quot;font-size: 16px;&quot;&gt;B&lt;sub&gt;0&lt;/sub&gt;&lt;/font&gt;" style="text;html=1;align=center;verticalAlign=middle;whiteSpace=wrap;rounded=0;" parent="1" vertex="1">
          <mxGeometry x="340" y="490" width="60" height="30" as="geometry" />
        </mxCell>
        <mxCell id="BS9RdD2L82Xt9nRUD7uX-69" value="&lt;font face=&quot;Times New Roman&quot; style=&quot;font-size: 16px;&quot;&gt;B&lt;sub&gt;1&lt;/sub&gt;&lt;/font&gt;" style="text;html=1;align=center;verticalAlign=middle;whiteSpace=wrap;rounded=0;" parent="1" vertex="1">
          <mxGeometry x="440" y="490" width="60" height="30" as="geometry" />
        </mxCell>
        <mxCell id="BS9RdD2L82Xt9nRUD7uX-70" value="&lt;font face=&quot;Times New Roman&quot; style=&quot;font-size: 16px;&quot;&gt;B&lt;sub&gt;2&lt;/sub&gt;&lt;/font&gt;" style="text;html=1;align=center;verticalAlign=middle;whiteSpace=wrap;rounded=0;" parent="1" vertex="1">
          <mxGeometry x="540" y="490" width="60" height="30" as="geometry" />
        </mxCell>
        <mxCell id="BS9RdD2L82Xt9nRUD7uX-71" value="&lt;font face=&quot;Times New Roman&quot; style=&quot;font-size: 16px;&quot;&gt;B&lt;sub&gt;3&lt;/sub&gt;&lt;/font&gt;" style="text;html=1;align=center;verticalAlign=middle;whiteSpace=wrap;rounded=0;" parent="1" vertex="1">
          <mxGeometry x="640" y="490" width="60" height="30" as="geometry" />
        </mxCell>
        <mxCell id="BS9RdD2L82Xt9nRUD7uX-72" value="" style="endArrow=none;html=1;rounded=0;strokeColor=default;align=center;verticalAlign=middle;fontFamily=Helvetica;fontSize=11;fontColor=default;labelBackgroundColor=default;edgeStyle=orthogonalEdgeStyle;" parent="1" edge="1">
          <mxGeometry width="50" height="50" relative="1" as="geometry">
            <mxPoint x="700" y="359" as="sourcePoint" />
            <mxPoint x="740.1010205144337" y="360.00000000000006" as="targetPoint" />
            <Array as="points">
              <mxPoint x="700" y="360" />
            </Array>
          </mxGeometry>
        </mxCell>
        <mxCell id="BS9RdD2L82Xt9nRUD7uX-49" value="" style="ellipse;whiteSpace=wrap;html=1;aspect=fixed;fontFamily=Helvetica;fontSize=11;fontColor=default;labelBackgroundColor=default;" parent="1" vertex="1">
          <mxGeometry x="740" y="355" width="10" height="10" as="geometry" />
        </mxCell>
        <mxCell id="3h_uh-FgA8ez3YBPBazs-2" value="" style="edgeStyle=orthogonalEdgeStyle;shape=connector;rounded=0;orthogonalLoop=1;jettySize=auto;html=1;exitDx=0;exitDy=0;strokeColor=default;align=center;verticalAlign=middle;fontFamily=Helvetica;fontSize=11;fontColor=default;labelBackgroundColor=default;startFill=0;endArrow=none;" edge="1" parent="1" source="BS9RdD2L82Xt9nRUD7uX-57" target="3h_uh-FgA8ez3YBPBazs-1">
          <mxGeometry relative="1" as="geometry">
            <mxPoint x="300" y="560" as="targetPoint" />
            <Array as="points" />
            <mxPoint x="390" y="560" as="sourcePoint" />
          </mxGeometry>
        </mxCell>
        <mxCell id="3h_uh-FgA8ez3YBPBazs-1" value="" style="shape=waypoint;sketch=0;fillStyle=solid;size=6;pointerEvents=1;points=[];fillColor=none;resizable=0;rotatable=0;perimeter=centerPerimeter;snapToPoint=1;fontFamily=Helvetica;fontSize=11;fontColor=default;labelBackgroundColor=default;" vertex="1" parent="1">
          <mxGeometry x="290.5" y="550" width="20" height="20" as="geometry" />
        </mxCell>
      </root>
    </mxGraphModel>
  </diagram>
</mxfile>
